<svg width="23" height="23" viewBox="0 0 23 23" fill="none" xmlns="http://www.w3.org/2000/svg">
<path fill-rule="evenodd" clip-rule="evenodd" d="M18.786 15.4606C18.7272 15.1362 18.7669 14.8016 18.9 14.5C19.0268 14.2042 19.2373 13.952 19.5055 13.7743C19.7738 13.5966 20.0882 13.5013 20.41 13.5H20.5C21.0304 13.5 21.5392 13.2893 21.9142 12.9142C22.2893 12.5391 22.5 12.0304 22.5 11.5C22.5 10.9696 22.2893 10.4609 21.9142 10.0858C21.5392 9.71071 21.0304 9.5 20.5 9.5H20.33C20.0082 9.49872 19.6938 9.40337 19.4255 9.22569C19.1573 9.04802 18.9468 8.79577 18.82 8.5V8.42C18.6869 8.11838 18.6472 7.78381 18.706 7.45941C18.7648 7.13502 18.9195 6.83568 19.15 6.6L19.21 6.54C19.396 6.35425 19.5435 6.13368 19.6441 5.89088C19.7448 5.64808 19.7966 5.38783 19.7966 5.125C19.7966 4.86217 19.7448 4.60192 19.6441 4.35912C19.5435 4.11632 19.396 3.89575 19.21 3.71C19.0243 3.52405 18.8037 3.37653 18.5609 3.27588C18.3181 3.17523 18.0578 3.12343 17.795 3.12343C17.5322 3.12343 17.2719 3.17523 17.0291 3.27588C16.7863 3.37653 16.5658 3.52405 16.38 3.71L16.32 3.77C16.0843 4.00054 15.785 4.15519 15.4606 4.214C15.1362 4.27282 14.8016 4.23312 14.5 4.1C14.2042 3.97324 13.952 3.76276 13.7743 3.49447C13.5966 3.22618 13.5013 2.91179 13.5 2.59V2.5C13.5 1.96957 13.2893 1.46086 12.9142 1.08579C12.5391 0.710714 12.0304 0.5 11.5 0.5C10.9696 0.5 10.4609 0.710714 10.0858 1.08579C9.71072 1.46086 9.5 1.96957 9.5 2.5V2.67C9.49872 2.99179 9.40337 3.30618 9.2257 3.57447C9.04802 3.84276 8.79577 4.05324 8.5 4.18H8.42C8.11838 4.31312 7.78381 4.35282 7.45941 4.294C7.13502 4.23519 6.83568 4.08054 6.6 3.85L6.54 3.79C6.35426 3.60405 6.13368 3.45653 5.89088 3.35588C5.64809 3.25523 5.38783 3.20343 5.125 3.20343C4.86217 3.20343 4.60192 3.25523 4.35912 3.35588C4.11633 3.45653 3.89575 3.60405 3.71 3.79C3.52405 3.97575 3.37653 4.19632 3.27588 4.43912C3.17523 4.68192 3.12343 4.94217 3.12343 5.205C3.12343 5.46783 3.17523 5.72808 3.27588 5.97088C3.37653 6.21368 3.52405 6.43425 3.71 6.62L3.77 6.68C4.00054 6.91568 4.15519 7.21502 4.21401 7.53941C4.27283 7.86381 4.23312 8.19838 4.1 8.5C3.98572 8.81074 3.7806 9.0799 3.5113 9.27251C3.24201 9.46512 2.921 9.57226 2.59 9.58H2.5C1.96957 9.58 1.46086 9.79071 1.08579 10.1658C0.710714 10.5409 0.5 11.0496 0.5 11.58C0.5 12.1104 0.710714 12.6191 1.08579 12.9942C1.46086 13.3693 1.96957 13.58 2.5 13.58H2.67C2.99179 13.5813 3.30617 13.6766 3.57446 13.8543C3.84275 14.032 4.05324 14.2842 4.18 14.58C4.31312 14.8816 4.35282 15.2162 4.294 15.5406C4.23519 15.865 4.08054 16.1643 3.85 16.4L3.79 16.46C3.60405 16.6457 3.45653 16.8663 3.35588 17.1091C3.25523 17.3519 3.20343 17.6122 3.20343 17.875C3.20343 18.1378 3.25523 18.3981 3.35588 18.6409C3.45653 18.8837 3.60405 19.1043 3.79 19.29C3.97575 19.476 4.19632 19.6235 4.43912 19.7241C4.68192 19.8248 4.94217 19.8766 5.205 19.8766C5.46783 19.8766 5.72808 19.8248 5.97088 19.7241C6.21368 19.6235 6.43425 19.476 6.62 19.29L6.68 19.23C6.91568 18.9995 7.21502 18.8448 7.53941 18.786C7.86381 18.7272 8.19839 18.7669 8.5 18.9C8.81074 19.0143 9.07991 19.2194 9.27251 19.4887C9.46512 19.758 9.57226 20.079 9.58 20.41V20.5C9.58 21.0304 9.79072 21.5391 10.1658 21.9142C10.5409 22.2893 11.0496 22.5 11.58 22.5C12.1104 22.5 12.6191 22.2893 12.9942 21.9142C13.3693 21.5391 13.58 21.0304 13.58 20.5V20.33C13.5813 20.0082 13.6766 19.6938 13.8543 19.4255C14.032 19.1572 14.2842 18.9468 14.58 18.82C14.8816 18.6869 15.2162 18.6472 15.5406 18.706C15.865 18.7648 16.1643 18.9195 16.4 19.15L16.46 19.21C16.6458 19.396 16.8663 19.5435 17.1091 19.6441C17.3519 19.7448 17.6122 19.7966 17.875 19.7966C18.1378 19.7966 18.3981 19.7448 18.6409 19.6441C18.8837 19.5435 19.1043 19.396 19.29 19.21C19.476 19.0243 19.6235 18.8037 19.7241 18.5609C19.8248 18.3181 19.8766 18.0578 19.8766 17.795C19.8766 17.5322 19.8248 17.2719 19.7241 17.0291C19.6235 16.7863 19.476 16.5657 19.29 16.38L19.23 16.32C18.9995 16.0843 18.8448 15.785 18.786 15.4606ZM14.5 11.5C14.5 13.1569 13.1569 14.5 11.5 14.5C9.84315 14.5 8.5 13.1569 8.5 11.5C8.5 9.84314 9.84315 8.5 11.5 8.5C13.1569 8.5 14.5 9.84314 14.5 11.5Z" stroke="black" stroke-linecap="round" stroke-linejoin="round"/>
</svg>
