<svg width="25" height="25" viewBox="0 0 25 25" fill="none" xmlns="http://www.w3.org/2000/svg">
<path d="M20.3095 8.32159L12.5001 15.9341L4.69073 8.32159C4.55121 8.18529 4.3639 8.10898 4.16885 8.10898C3.97381 8.10898 3.7865 8.18529 3.64698 8.32159C3.57942 8.38778 3.52575 8.46679 3.48911 8.55399C3.45247 8.64118 3.43359 8.73482 3.43359 8.8294C3.43359 8.92398 3.45247 9.01761 3.48911 9.10481C3.52575 9.19201 3.57942 9.27102 3.64698 9.33721L11.9548 17.4372C12.1007 17.5794 12.2964 17.659 12.5001 17.659C12.7038 17.659 12.8995 17.5794 13.0454 17.4372L21.3532 9.33877C21.4213 9.27253 21.4753 9.19333 21.5123 9.10584C21.5492 9.01835 21.5682 8.92436 21.5682 8.8294C21.5682 8.73444 21.5492 8.64044 21.5123 8.55296C21.4753 8.46547 21.4213 8.38627 21.3532 8.32002C21.2137 8.18373 21.0264 8.10742 20.8314 8.10742C20.6363 8.10742 20.449 8.18373 20.3095 8.32002V8.32159Z" fill="black"/>
</svg>
