<svg width="10" height="10" viewBox="0 0 10 10" fill="none" xmlns="http://www.w3.org/2000/svg">
<path d="M6.77665 8.16814L3.89478 5.24002C3.83157 5.17613 3.79612 5.08989 3.79612 5.00002C3.79612 4.91015 3.83157 4.82391 3.89478 4.76002L6.77603 1.83189C6.8392 1.76761 6.8746 1.68108 6.8746 1.59095C6.8746 1.50083 6.8392 1.4143 6.77603 1.35002C6.74517 1.31836 6.70828 1.2932 6.66755 1.27603C6.62681 1.25885 6.58305 1.25 6.53884 1.25C6.49463 1.25 6.45087 1.25885 6.41013 1.27603C6.3694 1.2932 6.33251 1.31836 6.30165 1.35002L3.4204 4.27752C3.23107 4.47034 3.125 4.72978 3.125 5.00002C3.125 5.27025 3.23107 5.52969 3.4204 5.72252L6.30165 8.65002C6.33252 8.68177 6.36945 8.70701 6.41024 8.72424C6.45103 8.74148 6.49487 8.75036 6.53915 8.75036C6.58344 8.75036 6.62727 8.74148 6.66807 8.72424C6.70886 8.70701 6.74578 8.68177 6.77665 8.65002C6.83983 8.58573 6.87522 8.49921 6.87522 8.40908C6.87522 8.31895 6.83983 8.23243 6.77665 8.16814Z" fill="#1E1E1E"/>
</svg>
