<svg width="12" height="12" viewBox="0 0 12 12" fill="none" xmlns="http://www.w3.org/2000/svg">
<path fill-rule="evenodd" clip-rule="evenodd" d="M8.74407 2.21501C8.66853 2.15041 8.57043 2.11844 8.47133 2.12612C8.37223 2.13381 8.28024 2.18053 8.21557 2.25601L5.21557 5.75601C5.15733 5.82397 5.12533 5.91051 5.12533 6.00001C5.12533 6.08951 5.15733 6.17605 5.21557 6.24401L8.21557 9.74401C8.28131 9.8158 8.37239 9.85921 8.46956 9.86507C8.56673 9.87093 8.66236 9.83877 8.73626 9.7754C8.81015 9.71203 8.8565 9.62241 8.86551 9.52548C8.87453 9.42856 8.8455 9.33192 8.78457 9.25601L5.99407 6.00001L8.78457 2.74401C8.84929 2.6686 8.88143 2.57058 8.87393 2.47148C8.86643 2.37239 8.8199 2.28032 8.74457 2.21551M6.74457 2.21551C6.70715 2.18344 6.66378 2.15907 6.61694 2.14377C6.5701 2.12848 6.5207 2.12257 6.47157 2.12638C6.42244 2.13018 6.37454 2.14364 6.33062 2.16597C6.28669 2.18829 6.2476 2.21906 6.21557 2.25651L3.21557 5.75651C3.15733 5.82447 3.12533 5.91101 3.12533 6.00051C3.12533 6.09001 3.15733 6.17655 3.21557 6.24451L6.21557 9.74451C6.28028 9.8201 6.37237 9.86688 6.47158 9.87457C6.57078 9.88226 6.66898 9.85022 6.74457 9.78551C6.82015 9.7208 6.86694 9.62871 6.87463 9.5295C6.88232 9.43029 6.85028 9.3321 6.78557 9.25651L3.99357 6.00001L6.78407 2.74401C6.84873 2.66853 6.88078 2.57048 6.87319 2.47138C6.8656 2.37228 6.81897 2.28025 6.74357 2.21551" fill="#1E1E1E"/>
</svg>
