<svg id="icon_pie_chart_bl" xmlns="http://www.w3.org/2000/svg" width="25.603" height="25.603" viewBox="0 0 25.603 25.603">
  <g id="그룹_259" data-name="그룹 259">
    <path id="패스_34" data-name="패스 34" d="M19.937,13.738A.938.938,0,0,1,19,12.8V.937A.937.937,0,0,1,19.937,0,12.847,12.847,0,0,1,31.022,6.4a.937.937,0,0,1-.343,1.28L20.405,13.612a.937.937,0,0,1-.468.126m.937-11.824v9.265L28.9,6.548a10.981,10.981,0,0,0-8.023-4.634" transform="translate(-7.135)" fill="#0049a8"/>
    <path id="패스_35" data-name="패스 35" d="M12.8,25.861A12.806,12.806,0,0,1,.451,16.429a12.678,12.678,0,0,1-.335-1.65,12.83,12.83,0,0,1,6.2-12.755A12.748,12.748,0,0,1,9.383.72a.937.937,0,1,1,.5,1.805,10.931,10.931,0,0,0-7.911,9.067,10.9,10.9,0,0,0,.746,5.678,10.944,10.944,0,0,0,7.165,6.323,11.054,11.054,0,0,0,5.839,0,10.907,10.907,0,0,0,4.836-2.839,11.012,11.012,0,0,0,1.708-2.232,10.93,10.93,0,0,0,1.082-2.588,10.958,10.958,0,0,0,0-5.751.937.937,0,1,1,1.807-.492,12.743,12.743,0,0,1,.334,1.65,12.9,12.9,0,0,1,0,3.436,12.743,12.743,0,0,1-.334,1.65,12.94,12.94,0,0,1-.539,1.566,13.079,13.079,0,0,1-.728,1.467,12.774,12.774,0,0,1-11.086,6.4" transform="translate(0 -0.258)" fill="#0049a8"/>
  </g>
</svg>
