<svg width="24" height="24" viewBox="0 0 24 24" fill="none" xmlns="http://www.w3.org/2000/svg">
<path d="M12.012 2.25C12.746 2.258 13.477 2.343 14.194 2.503C14.3465 2.53705 14.4846 2.6179 14.5889 2.73426C14.6933 2.85062 14.7587 2.99667 14.776 3.152L14.946 4.679C14.97 4.89428 15.0442 5.10093 15.1626 5.28231C15.281 5.46368 15.4404 5.61473 15.6278 5.72329C15.8153 5.83185 16.0256 5.89489 16.2419 5.90735C16.4581 5.9198 16.6743 5.88132 16.873 5.795L18.273 5.18C18.4152 5.11735 18.5734 5.10044 18.7257 5.13161C18.878 5.16278 19.0168 5.2405 19.123 5.354C20.135 6.43516 20.8889 7.73163 21.328 9.146C21.3738 9.29474 21.3723 9.45406 21.3236 9.60189C21.2748 9.74971 21.1813 9.87871 21.056 9.971L19.815 10.887C19.6401 11.0152 19.4979 11.1827 19.3999 11.3761C19.3019 11.5695 19.2508 11.7832 19.2508 12C19.2508 12.2168 19.3019 12.4305 19.3999 12.6239C19.4979 12.8173 19.6401 12.9848 19.815 13.113L21.058 14.028C21.1835 14.1204 21.2772 14.2495 21.3259 14.3976C21.3747 14.5456 21.3761 14.7051 21.33 14.854C20.8912 16.2683 20.1377 17.5647 19.126 18.646C19.02 18.7595 18.8814 18.8372 18.7293 18.8686C18.5772 18.8999 18.4192 18.8833 18.277 18.821L16.871 18.204C16.6726 18.117 16.4565 18.0779 16.2402 18.09C16.0238 18.102 15.8134 18.1648 15.6259 18.2733C15.4383 18.3817 15.279 18.5328 15.1607 18.7143C15.0424 18.8958 14.9685 19.1026 14.945 19.318L14.775 20.844C14.758 20.9975 14.694 21.142 14.5918 21.2578C14.4896 21.3736 14.3542 21.4551 14.204 21.491C12.7556 21.8363 11.2463 21.8363 9.79797 21.491C9.64757 21.4553 9.5119 21.3739 9.4095 21.2581C9.30711 21.1423 9.24301 20.9976 9.22597 20.844L9.05697 19.32C9.03242 19.1053 8.95787 18.8994 8.83931 18.7187C8.72074 18.5381 8.56146 18.3877 8.37426 18.2798C8.18707 18.1718 7.97716 18.1093 7.76141 18.0972C7.54566 18.0851 7.33008 18.1237 7.13197 18.21L5.72597 18.826C5.58363 18.8885 5.42537 18.9053 5.27309 18.8739C5.12081 18.8426 4.98204 18.7647 4.87597 18.651C3.8641 17.5685 3.11088 16.2706 2.67297 14.855C2.62687 14.7061 2.62829 14.5466 2.67703 14.3986C2.72578 14.2505 2.81943 14.1214 2.94497 14.029L4.18797 13.113C4.36282 12.9848 4.50501 12.8173 4.60302 12.6239C4.70103 12.4305 4.75211 12.2168 4.75211 12C4.75211 11.7832 4.70103 11.5695 4.60302 11.3761C4.50501 11.1827 4.36282 11.0152 4.18797 10.887L2.94497 9.973C2.81943 9.88065 2.72578 9.75148 2.67703 9.60345C2.62829 9.45542 2.62687 9.29588 2.67297 9.147C3.11201 7.73263 3.8659 6.43616 4.87797 5.355C4.98416 5.24149 5.12298 5.16378 5.27526 5.13261C5.42753 5.10144 5.58573 5.11835 5.72797 5.181L7.12797 5.796C7.32699 5.88227 7.54347 5.92066 7.76002 5.90809C7.97657 5.89551 8.18715 5.83232 8.37484 5.7236C8.56254 5.61487 8.72212 5.46363 8.84076 5.28204C8.9594 5.10045 9.0338 4.89356 9.05797 4.678L9.22797 3.152C9.24513 2.99635 9.31058 2.84998 9.41513 2.73341C9.51968 2.61684 9.6581 2.53592 9.81097 2.502C10.527 2.34333 11.2606 2.25933 12.012 2.25ZM12 9C11.2043 9 10.4413 9.31607 9.87865 9.87868C9.31604 10.4413 8.99997 11.2044 8.99997 12C8.99997 12.7956 9.31604 13.5587 9.87865 14.1213C10.4413 14.6839 11.2043 15 12 15C12.7956 15 13.5587 14.6839 14.1213 14.1213C14.6839 13.5587 15 12.7956 15 12C15 11.2044 14.6839 10.4413 14.1213 9.87868C13.5587 9.31607 12.7956 9 12 9Z" fill="white"/>
</svg>
