<svg id="icon_server_2_rd" xmlns="http://www.w3.org/2000/svg" xmlns:xlink="http://www.w3.org/1999/xlink" width="24.655" height="23.841" viewBox="0 0 24.655 23.841">
  <defs>
    <clipPath id="clip-path">
      <rect id="사각형_32" data-name="사각형 32" width="24.655" height="23.841" fill="#ad1f19"/>
    </clipPath>
  </defs>
  <g id="그룹_67" data-name="그룹 67" transform="translate(0 0)" clip-path="url(#clip-path)">
    <path id="패스_3" data-name="패스 3" d="M20.6,11.366H4.059A4.064,4.064,0,0,1,0,7.307V4.059A4.064,4.064,0,0,1,4.059,0H20.6a4.064,4.064,0,0,1,4.059,4.059V7.307A4.064,4.064,0,0,1,20.6,11.366M4.059,1.873A2.188,2.188,0,0,0,1.873,4.059V7.307A2.188,2.188,0,0,0,4.059,9.493H20.6a2.188,2.188,0,0,0,2.186-2.186V4.059A2.188,2.188,0,0,0,20.6,1.873Z" transform="translate(0 0)" fill="#ad1f19"/>
    <path id="패스_4" data-name="패스 4" d="M31.772,9.525a.937.937,0,0,1-.937-.937V6.147a.937.937,0,1,1,1.873,0V8.588a.937.937,0,0,1-.937.937" transform="translate(-11.579 -1.956)" fill="#ad1f19"/>
    <path id="패스_5" data-name="패스 5" d="M20.6,31.344H4.059A4.064,4.064,0,0,1,0,27.285V24.038a4.064,4.064,0,0,1,4.059-4.059H20.6a4.064,4.064,0,0,1,4.059,4.059v3.247A4.064,4.064,0,0,1,20.6,31.344M4.059,21.852a2.188,2.188,0,0,0-2.186,2.186v3.247A2.188,2.188,0,0,0,4.059,29.47H20.6a2.188,2.188,0,0,0,2.186-2.186V24.038A2.188,2.188,0,0,0,20.6,21.852Z" transform="translate(0 -7.502)" fill="#ad1f19"/>
    <path id="패스_6" data-name="패스 6" d="M31.772,29.5a.937.937,0,0,1-.937-.937V26.126a.937.937,0,1,1,1.873,0v2.442a.937.937,0,0,1-.937.937" transform="translate(-11.579 -9.459)" fill="#ad1f19"/>
  </g>
</svg>
