<svg id="icon_account_rd" xmlns="http://www.w3.org/2000/svg" xmlns:xlink="http://www.w3.org/1999/xlink" width="26" height="26" viewBox="0 0 26 26">
  <defs>
    <clipPath id="clip-path">
      <rect id="사각형_83" data-name="사각형 83" width="26" height="26" fill="#ad1f19"/>
    </clipPath>
  </defs>
  <g id="그룹_230" data-name="그룹 230" clip-path="url(#clip-path)">
    <path id="패스_110" data-name="패스 110" d="M12.88,0a12.88,12.88,0,1,0,12.88,12.88A12.894,12.894,0,0,0,12.88,0M7.7,23.033V20.972a5.144,5.144,0,0,1,2.98-4.67,5.071,5.071,0,0,0,4.384,0,5.141,5.141,0,0,1,2.986,4.672v2.061a11.3,11.3,0,0,1-10.35,0M12.879,7.885A3.765,3.765,0,0,1,16.162,13.5a3.727,3.727,0,0,1-1.4,1.4c-.015.007-.026.018-.041.026a3.762,3.762,0,1,1-1.841-7.039M19.433,22.2v-1.23a6.52,6.52,0,0,0-3.071-5.54,5.15,5.15,0,1,0-6.968,0,6.518,6.518,0,0,0-3.069,5.539V22.2a11.408,11.408,0,1,1,13.108,0" fill="#ad1f19"/>
  </g>
</svg>
