<svg width="20" height="22" viewBox="0 0 20 22" fill="none" xmlns="http://www.w3.org/2000/svg">
<path d="M10 19.6395C14.9706 19.6395 19 15.61 19 10.6395C19 5.66889 14.9706 1.63947 10 1.63947C5.02944 1.63947 1 5.66889 1 10.6395C1 15.61 5.02944 19.6395 10 19.6395Z" fill="#A8ADB5"/>
<path d="M6.32129 10.6575C6.32129 8.17805 7.8305 6.46222 10.2021 6.46222C12.1694 6.46222 13.5439 7.61209 13.6787 9.35487H11.855C11.7023 8.5823 11.1364 7.98041 10.2111 7.98041C9.03428 7.98041 8.24374 8.97757 8.24374 10.6036C8.24374 12.2296 9.01631 13.2716 10.2111 13.2716C11.0645 13.2716 11.6843 12.7775 11.855 11.8972H13.6787C13.5259 13.613 12.2323 14.8168 10.2021 14.8168C7.78558 14.8168 6.32129 13.083 6.32129 10.6395V10.6575Z" fill="white"/>
</svg>
