<svg id="icon_delete_bl" xmlns="http://www.w3.org/2000/svg" xmlns:xlink="http://www.w3.org/1999/xlink" width="22.876" height="22.875" viewBox="0 0 22.876 22.875">
  <defs>
    <clipPath id="clip-path">
      <rect id="사각형_51" data-name="사각형 51" width="22.876" height="22.875" fill="#0049a8"/>
    </clipPath>
  </defs>
  <g id="그룹_105" data-name="그룹 105" transform="translate(0 0)" clip-path="url(#clip-path)">
    <path id="패스_62" data-name="패스 62" d="M11.438,22.875A11.438,11.438,0,1,1,22.875,11.437,11.451,11.451,0,0,1,11.438,22.875m0-21A9.564,9.564,0,1,0,21,11.437a9.575,9.575,0,0,0-9.563-9.563" transform="translate(0 0)" fill="#0049a8"/>
    <path id="패스_63" data-name="패스 63" d="M13.129,19.84a.937.937,0,0,1-.663-1.6l5.776-5.774a.937.937,0,1,1,1.325,1.325l-5.776,5.774a.934.934,0,0,1-.663.274" transform="translate(-4.579 -4.579)" fill="#0049a8"/>
    <path id="패스_64" data-name="패스 64" d="M18.9,19.84a.934.934,0,0,1-.663-.274l-5.776-5.774a.937.937,0,0,1,1.325-1.325l5.776,5.774a.937.937,0,0,1-.663,1.6" transform="translate(-4.578 -4.579)" fill="#0049a8"/>
  </g>
</svg>
