<svg id="icon_mail" xmlns="http://www.w3.org/2000/svg" xmlns:xlink="http://www.w3.org/1999/xlink" width="26.113" height="22.466" viewBox="0 0 26.113 22.466">
  <defs>
    <clipPath id="clip-path">
      <rect id="사각형_44" data-name="사각형 44" width="26.113" height="22.466" fill="none"/>
    </clipPath>
  </defs>
  <g id="그룹_91" data-name="그룹 91" transform="translate(0 0)" clip-path="url(#clip-path)">
    <path id="패스_41" data-name="패스 41" d="M21.369,23.261H4.742a4.482,4.482,0,0,1-1.867-.4,4.652,4.652,0,0,1-1.509-1.086,4.969,4.969,0,0,1-1-1.583A5.236,5.236,0,0,1,0,18.262V5.793A5.141,5.141,0,0,1,1.221,2.449a.937.937,0,0,1,1.288-.135l10.549,8.164L23.6,2.316a.937.937,0,0,1,1.285.131,4.958,4.958,0,0,1,.512.718,5.462,5.462,0,0,1,.383.8,5.582,5.582,0,0,1,.245.884,5.479,5.479,0,0,1,.084.944V18.262a5.232,5.232,0,0,1-.363,1.925,5.005,5.005,0,0,1-1.007,1.589,4.669,4.669,0,0,1-1.51,1.084,4.479,4.479,0,0,1-1.864.4M2.168,4.419c-.032.069-.061.14-.088.21a3.345,3.345,0,0,0-.206,1.163V18.262A3.355,3.355,0,0,0,2.107,19.5a3.153,3.153,0,0,0,.627.992,2.8,2.8,0,0,0,.911.659,2.634,2.634,0,0,0,1.1.238H21.369a2.626,2.626,0,0,0,1.094-.236,2.829,2.829,0,0,0,.914-.658,3.2,3.2,0,0,0,.631-1,3.369,3.369,0,0,0,.232-1.235V5.793a3.551,3.551,0,0,0-.054-.608,3.673,3.673,0,0,0-.155-.563c-.026-.066-.054-.134-.085-.2L13.63,12.4a.936.936,0,0,1-1.146,0Z" transform="translate(0 -0.795)" fill="#262626"/>
    <path id="패스_42" data-name="패스 42" d="M13.658,11.8a.931.931,0,0,1-.574-.2L1.962,3a.936.936,0,0,1-.137-1.351A4.649,4.649,0,0,1,5.342,0H21.969a4.644,4.644,0,0,1,3.52,1.652A.937.937,0,0,1,25.35,3l-11.12,8.6a.933.933,0,0,1-.573.2M4.02,2.225l9.637,7.457,9.635-7.456a2.653,2.653,0,0,0-1.324-.352H5.342a2.652,2.652,0,0,0-1.321.351" transform="translate(-0.6 0)" fill="#262626"/>
    <path id="패스_43" data-name="패스 43" d="M33.215,27.645a.937.937,0,0,1-.937-.937V25.538a.937.937,0,0,1,1.873,0v1.171a.937.937,0,0,1-.937.937" transform="translate(-12.121 -9.238)" fill="#262626"/>
    <path id="패스_44" data-name="패스 44" d="M27.215,27.645a.937.937,0,0,1-.937-.937V25.538a.937.937,0,0,1,1.873,0v1.171a.937.937,0,0,1-.937.937" transform="translate(-9.868 -9.238)" fill="#262626"/>
    <path id="패스_45" data-name="패스 45" d="M21.215,27.645a.937.937,0,0,1-.937-.937V25.538a.937.937,0,0,1,1.873,0v1.171a.937.937,0,0,1-.937.937" transform="translate(-7.615 -9.238)" fill="#262626"/>
  </g>
</svg>
