<svg id="icon_database_bl" xmlns="http://www.w3.org/2000/svg" xmlns:xlink="http://www.w3.org/1999/xlink" width="22.597" height="26.79" viewBox="0 0 22.597 26.79">
  <defs>
    <clipPath id="clip-path">
      <rect id="사각형_48" data-name="사각형 48" width="22.597" height="26.79" fill="#0049a8"/>
    </clipPath>
  </defs>
  <g id="그룹_99" data-name="그룹 99" transform="translate(0 0)" clip-path="url(#clip-path)">
    <path id="패스_54" data-name="패스 54" d="M11.3,34.83C4.858,34.83,0,32.491,0,29.389V22.347a.937.937,0,0,1,1.873,0v7.043c0,1.684,4.03,3.567,9.425,3.567s9.425-1.883,9.425-3.567V22.347a.937.937,0,0,1,1.873,0v7.043c0,3.1-4.857,5.44-11.3,5.44" transform="translate(0 -8.04)" fill="#0049a8"/>
    <path id="패스_55" data-name="패스 55" d="M11.3,21.48C4.858,21.48,0,19.141,0,16.039V9A.937.937,0,0,1,1.873,9v7.043c0,1.684,4.03,3.567,9.425,3.567s9.425-1.883,9.425-3.567V9A.937.937,0,0,1,22.6,9v7.043c0,3.1-4.857,5.44-11.3,5.44" transform="translate(0 -3.027)" fill="#0049a8"/>
    <path id="패스_56" data-name="패스 56" d="M11.3,10.881C4.858,10.881,0,8.542,0,5.44S4.858,0,11.3,0,22.6,2.339,22.6,5.44s-4.857,5.441-11.3,5.441m0-9.007C5.9,1.873,1.873,3.756,1.873,5.44S5.9,9.007,11.3,9.007s9.425-1.884,9.425-3.568S16.693,1.873,11.3,1.873" transform="translate(0 0)" fill="#0049a8"/>
  </g>
</svg>
