<svg width="20" height="20" viewBox="0 0 20 20" fill="none" xmlns="http://www.w3.org/2000/svg">
<path fill-rule="evenodd" clip-rule="evenodd" d="M3.5 2.00024C2.11929 2.00024 1 3.11954 1 4.50025V12.8399C1 12.8768 1.0008 12.9134 1.00237 12.9499C1.0012 12.9661 1.00062 12.9825 1.00065 12.999L1.00817 17.4564C1.0091 18.0117 1.68499 18.2954 2.16102 17.9403L5.64741 15.3399H16.5C17.8807 15.3399 19 14.2207 19 12.8399V4.50024C19 3.11953 17.8807 2.00024 16.5 2.00024H3.5Z" fill="#A8ADB5"/>
<path fill-rule="evenodd" clip-rule="evenodd" d="M11.0422 7.62435H5.7998V5.8053H11.0422V7.62435ZM14.1998 11.5106H5.7998V9.6915H14.1998V11.5106Z" fill="white"/>
</svg>
