<svg xmlns="http://www.w3.org/2000/svg" xmlns:xlink="http://www.w3.org/1999/xlink" width="30.338" height="25" viewBox="0 0 30.338 25">
  <defs>
    <clipPath id="clip-path">
      <rect id="사각형_77" data-name="사각형 77" width="30.338" height="25" fill="#0049a8"/>
    </clipPath>
  </defs>
  <g id="icon_empty_bl" transform="translate(0 0)">
    <g id="그룹_216" data-name="그룹 216" transform="translate(0 0)" clip-path="url(#clip-path)">
      <path id="패스_94" data-name="패스 94" d="M27.876,8.238,25.143.439A.656.656,0,0,0,24.524,0H3.388a.657.657,0,0,0-.619.439L.037,8.238A.662.662,0,0,0,0,8.455V22.208a.656.656,0,0,0,.656.656H18.911a3.213,3.213,0,0,1-.722-1.312H1.312V8.567L3.854,1.312h20.2L26.6,8.567v3.784a2.909,2.909,0,0,1,1.312,1.281V8.455a.662.662,0,0,0-.037-.217" transform="translate(0 0)" fill="#0049a8"/>
      <path id="패스_95" data-name="패스 95" d="M27.256,13.2H.656a.656.656,0,0,1,0-1.312h26.6a.656.656,0,0,1,0,1.312" transform="translate(0 -4.087)" fill="#0049a8"/>
      <path id="패스_96" data-name="패스 96" d="M20.927,9.111a.656.656,0,0,1-.656-.656V.656a.656.656,0,1,1,1.312,0v7.8a.656.656,0,0,1-.656.656" transform="translate(-6.971 0)" fill="#0049a8"/>
      <path id="패스_97" data-name="패스 97" d="M31.671,30.648a7.112,7.112,0,1,1,7.112-7.112,7.121,7.121,0,0,1-7.112,7.112m0-12.912a5.8,5.8,0,1,0,5.8,5.8,5.807,5.807,0,0,0-5.8-5.8" transform="translate(-8.445 -5.647)" fill="#0049a8"/>
      <path id="패스_98" data-name="패스 98" d="M35.055,26.7a.656.656,0,0,1-.656-.656V22.992a.656.656,0,1,1,1.312,0V26.04a.656.656,0,0,1-.656.656" transform="translate(-11.829 -7.681)" fill="#0049a8"/>
      <path id="패스_99" data-name="패스 99" d="M35.055,31.244a.656.656,0,0,1-.656-.656V30.1a.656.656,0,0,1,1.312,0v.492a.656.656,0,0,1-.656.656" transform="translate(-11.829 -10.124)" fill="#0049a8"/>
    </g>
  </g>
</svg>
