<svg id="icon_bookmark_w" xmlns="http://www.w3.org/2000/svg" xmlns:xlink="http://www.w3.org/1999/xlink" width="17.269" height="24.256" viewBox="0 0 17.269 24.256">
  <defs>
    <clipPath id="clip-path">
      <rect id="사각형_41" data-name="사각형 41" width="17.269" height="24.256" fill="#fff"/>
    </clipPath>
  </defs>
  <g id="그룹_85" data-name="그룹 85" transform="translate(0 0)" clip-path="url(#clip-path)">
    <path id="패스_33" data-name="패스 33" d="M.937,24.256A.937.937,0,0,1,0,23.32V.937A.937.937,0,0,1,.937,0h15.4a.937.937,0,0,1,.937.937V23.32a.937.937,0,0,1-1.462.776L8.634,19.24,1.462,24.1a.938.938,0,0,1-.525.161m7.7-7.085a.935.935,0,0,1,.525.161L15.4,21.555V1.873H1.873V21.554l6.235-4.221a.935.935,0,0,1,.525-.161" transform="translate(0 0)" fill="#fff"/>
  </g>
</svg>
