<svg id="icon_folder_rd" xmlns="http://www.w3.org/2000/svg" xmlns:xlink="http://www.w3.org/1999/xlink" width="24.667" height="24.354" viewBox="0 0 24.667 24.354">
  <defs>
    <clipPath id="clip-path">
      <rect id="사각형_49" data-name="사각형 49" width="24.667" height="24.354" fill="#ad1f19"/>
    </clipPath>
  </defs>
  <g id="그룹_101" data-name="그룹 101" clip-path="url(#clip-path)">
    <path id="패스_57" data-name="패스 57" d="M20.608,24.354H4.059A4.064,4.064,0,0,1,0,20.3V4.059A4.064,4.064,0,0,1,4.059,0H7.494A4.066,4.066,0,0,1,11.5,3.435h9.1a4.064,4.064,0,0,1,4.059,4.059V20.3a4.064,4.064,0,0,1-4.059,4.059M4.059,1.873A2.188,2.188,0,0,0,1.873,4.059V20.3a2.188,2.188,0,0,0,2.186,2.186H20.608A2.188,2.188,0,0,0,22.793,20.3V7.494a2.188,2.188,0,0,0-2.186-2.186H10.616a.937.937,0,0,1-.937-.937V4.059A2.188,2.188,0,0,0,7.494,1.873Z" fill="#ad1f19"/>
    <path id="패스_58" data-name="패스 58" d="M25.324,29.75H23.242a2.394,2.394,0,1,1,0-4.788h2.081a2.394,2.394,0,0,1,0,4.788m-2.081-2.914a.52.52,0,1,0,0,1.041h2.081a.52.52,0,0,0,0-1.041Z" transform="translate(-7.829 -9.374)" fill="#ad1f19"/>
  </g>
</svg>
