<svg id="icon_file_bl" xmlns="http://www.w3.org/2000/svg" xmlns:xlink="http://www.w3.org/1999/xlink" width="23.289" height="25.359" viewBox="0 0 23.289 25.359">
  <defs>
    <clipPath id="clip-path">
      <rect id="사각형_67" data-name="사각형 67" width="23.289" height="25.359" fill="#0049a8"/>
    </clipPath>
  </defs>
  <g id="그룹_183" data-name="그룹 183" transform="translate(0 0)" clip-path="url(#clip-path)">
    <path id="패스_88" data-name="패스 88" d="M8.372,25.358h0A8.376,8.376,0,0,1,2.392,11.116a.716.716,0,0,1,.066-.075L11.8,1.7a5.806,5.806,0,1,1,8.21,8.212l-9.343,9.345a.961.961,0,0,1-.075.067A3.475,3.475,0,0,1,8.17,20.3,3.547,3.547,0,0,1,5.693,19.27a3.5,3.5,0,0,1,0-4.952L13.7,6.308a.937.937,0,0,1,1.325,1.325L7.018,15.645a1.628,1.628,0,0,0,1.151,2.778h0a1.613,1.613,0,0,0,1.15-.476c.022-.022.046-.043.07-.063l9.3-9.3a3.933,3.933,0,1,0-5.561-5.562l-9.288,9.29a.816.816,0,0,1-.064.072,6.5,6.5,0,0,0,9.194,9.2l8.722-8.723a.937.937,0,0,1,1.325,1.325l-8.722,8.723a8.318,8.318,0,0,1-5.921,2.452" transform="translate(0 0.001)" fill="#0049a8"/>
  </g>
</svg>
