<svg id="icon_labtop_bl" xmlns="http://www.w3.org/2000/svg" xmlns:xlink="http://www.w3.org/1999/xlink" width="27.07" height="21.464" viewBox="0 0 27.07 21.464">
  <defs>
    <clipPath id="clip-path">
      <rect id="사각형_35" data-name="사각형 35" width="27.07" height="21.464" fill="#0049a8"/>
    </clipPath>
  </defs>
  <g id="그룹_73" data-name="그룹 73" transform="translate(0 0)" clip-path="url(#clip-path)">
    <path id="패스_14" data-name="패스 14" d="M25.159,17.3h-6.9a.937.937,0,1,1,0-1.873h5.965V2.536a.663.663,0,0,0-.663-.663H6.457a.663.663,0,0,0-.663.663V15.429h5.963a.937.937,0,1,1,0,1.873h-6.9a.937.937,0,0,1-.937-.937V2.536A2.539,2.539,0,0,1,6.457,0h17.1A2.539,2.539,0,0,1,26.1,2.536v13.83a.937.937,0,0,1-.937.937" transform="translate(-1.472 0)" fill="#0049a8"/>
    <path id="패스_15" data-name="패스 15" d="M24.442,30.742H2.63A2.868,2.868,0,0,1,0,27.689V25.644a.937.937,0,0,1,.937-.937h9.348a.937.937,0,1,1,0,1.873H1.873v1.109c0,.7.4,1.179.756,1.179H24.442c.357,0,.755-.484.755-1.179V26.58H16.785a.937.937,0,1,1,0-1.873h9.349a.937.937,0,0,1,.937.937v2.046a2.867,2.867,0,0,1-2.628,3.052" transform="translate(0 -9.278)" fill="#0049a8"/>
    <path id="패스_16" data-name="패스 16" d="M21.385,7.515H20a.937.937,0,0,1,0-1.873h1.381a.937.937,0,0,1,0,1.873" transform="translate(-7.16 -2.119)" fill="#0049a8"/>
    <path id="패스_17" data-name="패스 17" d="M12.984,17.794H11.111a.937.937,0,0,1,0-1.873h1.873a.937.937,0,0,1,0,1.873" transform="translate(-3.821 -5.979)" fill="#0049a8"/>
    <path id="패스_18" data-name="패스 18" d="M21.484,17.794H19.611a.937.937,0,0,1,0-1.873h1.873a.937.937,0,0,1,0,1.873" transform="translate(-7.013 -5.979)" fill="#0049a8"/>
    <path id="패스_19" data-name="패스 19" d="M29.984,17.794H28.111a.937.937,0,0,1,0-1.873h1.873a.937.937,0,0,1,0,1.873" transform="translate(-10.205 -5.979)" fill="#0049a8"/>
  </g>
</svg>
