<svg id="icon_setting_w" xmlns="http://www.w3.org/2000/svg" xmlns:xlink="http://www.w3.org/1999/xlink" width="23.865" height="26.443" viewBox="0 0 23.865 26.443">
  <defs>
    <clipPath id="clip-path">
      <rect id="사각형_46" data-name="사각형 46" width="23.865" height="26.443" fill="#fff"/>
    </clipPath>
  </defs>
  <g id="그룹_95" data-name="그룹 95" transform="translate(0 0)" clip-path="url(#clip-path)">
    <path id="패스_50" data-name="패스 50" d="M16.392,22.73A3.908,3.908,0,1,1,20.3,18.822a3.913,3.913,0,0,1-3.907,3.909m0-5.942a2.034,2.034,0,1,0,2.034,2.033,2.037,2.037,0,0,0-2.034-2.033" transform="translate(-4.688 -5.601)" fill="#fff"/>
    <path id="패스_51" data-name="패스 51" d="M11.986,26.443h-.1a3.4,3.4,0,0,1-3.4-3.4v-.523A9.885,9.885,0,0,1,5.544,20.9l-.393.227A3.4,3.4,0,0,1,.509,19.878l-.057-.1A3.4,3.4,0,0,1,1.7,15.144l.317-.183a9.37,9.37,0,0,1,0-3.48L1.7,11.3A3.4,3.4,0,0,1,.457,6.655l.052-.091A3.4,3.4,0,0,1,5.151,5.322l.392.225A9.9,9.9,0,0,1,8.482,3.922V3.4a3.4,3.4,0,0,1,3.4-3.4h.1a3.4,3.4,0,0,1,3.4,3.4v.688A9.941,9.941,0,0,1,18.057,5.7l.658-.379a3.4,3.4,0,0,1,4.642,1.243l.051.087A3.4,3.4,0,0,1,22.165,11.3l-.731.422a9.458,9.458,0,0,1,0,3l.731.423a3.4,3.4,0,0,1,1.243,4.641l-.049.084a3.4,3.4,0,0,1-4.645,1.252l-.657-.38a9.9,9.9,0,0,1-2.674,1.612v.689a3.4,3.4,0,0,1-3.4,3.4M5.651,18.815a.938.938,0,0,1,.637.249,7.991,7.991,0,0,0,3.371,1.858.937.937,0,0,1,.7.905v1.216a1.527,1.527,0,0,0,1.526,1.526h.1a1.527,1.527,0,0,0,1.524-1.526V21.7a.938.938,0,0,1,.649-.892,8,8,0,0,0,3.12-1.887.937.937,0,0,1,1.123-.142l1.248.721a1.528,1.528,0,0,0,2.084-.56l.048-.085a1.523,1.523,0,0,0-.554-2.088h0l-1.307-.756a.937.937,0,0,1-.445-1.02,7.759,7.759,0,0,0,0-3.542.936.936,0,0,1,.445-1.019l1.307-.755a1.528,1.528,0,0,0,.558-2.084l-.05-.086a1.528,1.528,0,0,0-2.086-.561l-1.25.721a.937.937,0,0,1-1.123-.142,8.022,8.022,0,0,0-3.12-1.89.937.937,0,0,1-.648-.891V3.4a1.527,1.527,0,0,0-1.524-1.525h-.1A1.527,1.527,0,0,0,10.355,3.4V4.615a.937.937,0,0,1-.7.905A7.987,7.987,0,0,0,6.288,7.378a.938.938,0,0,1-1.1.125l-.968-.558A1.528,1.528,0,0,0,2.131,7.5l-.052.09a1.528,1.528,0,0,0,.558,2.084l.91.525a.937.937,0,0,1,.439,1.043,7.687,7.687,0,0,0,0,3.954.937.937,0,0,1-.439,1.043l-.91.525a1.526,1.526,0,0,0-.558,2.082l.057.1a1.528,1.528,0,0,0,2.079.55l.967-.559a.933.933,0,0,1,.468-.126" transform="translate(0 0)" fill="#fff"/>
  </g>
</svg>
