<svg id="icon_copy" xmlns="http://www.w3.org/2000/svg" xmlns:xlink="http://www.w3.org/1999/xlink" width="24.938" height="24.354" viewBox="0 0 24.938 24.354">
  <defs>
    <clipPath id="clip-path">
      <rect id="사각형_47" data-name="사각형 47" width="24.938" height="24.354" fill="none"/>
    </clipPath>
  </defs>
  <g id="그룹_97" data-name="그룹 97" clip-path="url(#clip-path)">
    <path id="패스_52" data-name="패스 52" d="M25.822,17.056H16.48A3.861,3.861,0,0,1,12.623,13.2V3.857A3.861,3.861,0,0,1,16.48,0h9.342a3.861,3.861,0,0,1,3.857,3.857V13.2a3.861,3.861,0,0,1-3.857,3.856M16.48,1.873A1.986,1.986,0,0,0,14.5,3.857V13.2a1.985,1.985,0,0,0,1.983,1.983h9.342A1.985,1.985,0,0,0,27.805,13.2V3.857a1.986,1.986,0,0,0-1.983-1.983Z" transform="translate(-4.74)" fill="#262626"/>
    <path id="패스_53" data-name="패스 53" d="M13.2,28.744H3.856A3.86,3.86,0,0,1,0,24.887V15.545a3.861,3.861,0,0,1,3.856-3.857H8.819a.937.937,0,0,1,0,1.873H3.856a1.985,1.985,0,0,0-1.983,1.983v9.343A1.985,1.985,0,0,0,3.856,26.87H13.2a1.985,1.985,0,0,0,1.983-1.983V20.508a.937.937,0,1,1,1.873,0v4.379A3.861,3.861,0,0,1,13.2,28.744" transform="translate(0 -4.389)" fill="#262626"/>
  </g>
</svg>
