<svg id="icon_lock_w" xmlns="http://www.w3.org/2000/svg" xmlns:xlink="http://www.w3.org/1999/xlink" width="18.734" height="25.427" viewBox="0 0 18.734 25.427">
  <defs>
    <clipPath id="clip-path">
      <rect id="사각형_38" data-name="사각형 38" width="18.734" height="25.427" fill="#fff"/>
    </clipPath>
  </defs>
  <g id="그룹_79" data-name="그룹 79" transform="translate(0 0)" clip-path="url(#clip-path)">
    <path id="패스_24" data-name="패스 24" d="M16.47,10.217a.937.937,0,0,1-.937-.937v-3.7c0-2.184-1.712-3.71-4.163-3.71S7.205,3.4,7.205,5.583v3.7a.937.937,0,1,1-1.873,0v-3.7C5.332,2.348,7.871,0,11.37,0s6.037,2.348,6.037,5.583v3.7a.937.937,0,0,1-.937.937" transform="translate(-2.002 0)" fill="#fff"/>
    <path id="패스_25" data-name="패스 25" d="M14.675,30.765H4.059A4.064,4.064,0,0,1,0,26.706v-8.43a4.064,4.064,0,0,1,4.059-4.059H14.675a4.064,4.064,0,0,1,4.059,4.059v8.43a4.064,4.064,0,0,1-4.059,4.059M4.059,16.09a2.188,2.188,0,0,0-2.186,2.186v8.43a2.188,2.188,0,0,0,2.186,2.186H14.675a2.188,2.188,0,0,0,2.186-2.186v-8.43a2.188,2.188,0,0,0-2.186-2.186Z" transform="translate(0 -5.339)" fill="#fff"/>
    <path id="패스_26" data-name="패스 26" d="M14.437,28.525a.937.937,0,0,1-.937-.937V24.154a.937.937,0,0,1,1.873,0v3.435a.937.937,0,0,1-.937.937" transform="translate(-5.07 -8.719)" fill="#fff"/>
  </g>
</svg>
