<svg xmlns="http://www.w3.org/2000/svg" xmlns:xlink="http://www.w3.org/1999/xlink" width="30.247" height="27.096" viewBox="0 0 30.247 27.096">
  <defs>
    <clipPath id="clip-path">
      <rect id="사각형_81" data-name="사각형 81" width="25.838" height="20.487" fill="#ad1f19"/>
    </clipPath>
    <clipPath id="clip-path-2">
      <rect id="사각형_82" data-name="사각형 82" width="30.247" height="27.096" fill="#ad1f19"/>
    </clipPath>
  </defs>
  <g id="icon_web_info_rd" transform="translate(0 0)">
    <g id="그룹_223" data-name="그룹 223" transform="translate(0.006 6.61)">
      <g id="그룹_222" data-name="그룹 222" clip-path="url(#clip-path)">
        <path id="패스_100" data-name="패스 100" d="M10.806,24.108H5.114V11.8a.633.633,0,0,1,.633-.633h10.6a3.831,3.831,0,0,1-.2-1,3,3,0,0,1,.071-.783H5.747A2.423,2.423,0,0,0,3.326,11.8V25a.894.894,0,0,0,.894.894h6.644a.894.894,0,0,0-.058-1.788" transform="translate(-0.989 -9.381)" fill="#ad1f19"/>
        <path id="패스_101" data-name="패스 101" d="M29.488,20.422a3.181,3.181,0,0,1-1.432.083v6.821H22.3a.894.894,0,1,0,.058,1.788h6.586l0,0a.894.894,0,0,0,.894-.894V20.28a3.254,3.254,0,0,1-.358.142" transform="translate(-6.339 -12.601)" fill="#ad1f19"/>
        <path id="패스_102" data-name="패스 102" d="M23.335,36.043H2.516a2.738,2.738,0,0,1-2.51-2.914V31.177A.894.894,0,0,1,.9,30.283H9.823a.894.894,0,1,1,.058,1.788H1.794v1.058c0,.669.382,1.125.721,1.125h20.82c.341,0,.721-.462.721-1.125V32.07H16.027a.894.894,0,0,1-.058-1.788H24.95a.894.894,0,0,1,.894.894V33.13a2.736,2.736,0,0,1-2.508,2.913" transform="translate(-0.006 -15.556)" fill="#ad1f19"/>
        <path id="패스_103" data-name="패스 103" d="M18.362,15.942H17.04a.894.894,0,0,1,0-1.788h1.318a.894.894,0,0,1,0,1.788" transform="translate(-4.785 -10.791)" fill="#ad1f19"/>
        <path id="패스_104" data-name="패스 104" d="M11.31,24.638H9.522a.894.894,0,0,1,0-1.788H11.31a.894.894,0,0,1,0,1.788" transform="translate(-2.564 -13.36)" fill="#ad1f19"/>
        <path id="패스_105" data-name="패스 105" d="M18.5,24.638H16.712a.894.894,0,0,1,0-1.788H18.5a.894.894,0,0,1,0,1.788" transform="translate(-4.688 -13.36)" fill="#ad1f19"/>
        <path id="패스_106" data-name="패스 106" d="M25.691,24.638H23.9a.894.894,0,0,1,0-1.788h1.788a.894.894,0,0,1,0,1.788" transform="translate(-6.812 -13.36)" fill="#ad1f19"/>
      </g>
    </g>
    <g id="그룹_225" data-name="그룹 225" transform="translate(0 0.001)">
      <g id="그룹_224" data-name="그룹 224" clip-path="url(#clip-path-2)">
        <path id="패스_107" data-name="패스 107" d="M28.887,15.275a7.638,7.638,0,1,1,7.638-7.638,7.647,7.647,0,0,1-7.638,7.638m0-13.866a6.229,6.229,0,1,0,6.229,6.229,6.236,6.236,0,0,0-6.229-6.229" transform="translate(-6.277 0)" fill="#ad1f19"/>
        <path id="패스_108" data-name="패스 108" d="M31.794,10.6a.7.7,0,0,1-.7-.7V6.618a.7.7,0,1,1,1.409,0V9.891a.7.7,0,0,1-.7.7" transform="translate(-9.184 -1.747)" fill="#ad1f19"/>
        <path id="패스_109" data-name="패스 109" d="M31.794,14.955a.7.7,0,0,1-.7-.7v-.528a.7.7,0,1,1,1.409,0v.528a.7.7,0,0,1-.7.7" transform="translate(-9.184 -3.846)" fill="#ad1f19"/>
      </g>
    </g>
  </g>
</svg>
