<svg width="20" height="21" viewBox="0 0 20 21" fill="none" xmlns="http://www.w3.org/2000/svg">
<g clip-path="url(#clip0_407_15811)">
<mask id="mask0_407_15811" style="mask-type:luminance" maskUnits="userSpaceOnUse" x="0" y="0" width="20" height="21">
<path d="M20 0.5H0V20.5H20V0.5Z" fill="white"/>
</mask>
<g mask="url(#mask0_407_15811)">
<path d="M11.5808 1.20921L0.705613 12.0843C0.315089 12.4749 0.315089 13.108 0.705613 13.4985L7.00706 19.8C7.39758 20.1905 8.03075 20.1905 8.42127 19.8L19.2964 8.92487C19.687 8.53435 19.687 7.90118 19.2964 7.51066L12.995 1.20921C12.6045 0.81869 11.9713 0.81869 11.5808 1.20921Z" fill="#A8ADB5"/>
<path fill-rule="evenodd" clip-rule="evenodd" d="M13.5726 3.15948L17.3871 6.97388L17.0859 7.27441C17.0582 7.30209 17.0216 7.32989 17.0185 7.33232L17.0002 7.34634L16.9944 7.35071L16.9927 7.35203L16.9918 7.35266L16.9644 7.37325C16.5849 7.82729 16.5969 8.49892 17.0026 8.94585L17.2748 9.24568L8.74329 17.7772L8.44323 17.5002C7.97696 17.0698 7.26809 17.0755 6.81559 17.5156L6.80697 17.5268L6.80442 17.5301L6.80382 17.5309L6.50984 17.923L2.69478 14.1078L2.99746 13.8073C3.01079 13.7941 3.02287 13.7837 3.03176 13.7764C3.0407 13.7691 3.0485 13.7632 3.05373 13.7594L3.05818 13.7562C3.50088 13.2995 3.50055 12.5612 3.05706 12.1049L3.04607 12.0965L3.04273 12.0939L3.04191 12.0933L2.64929 11.799L11.2647 3.20474L11.5649 3.50737C11.5781 3.52067 11.5884 3.53271 11.5957 3.54158C11.603 3.5505 11.6088 3.55828 11.6127 3.5635L11.6159 3.56792C12.0725 4.01066 12.8109 4.01029 13.2671 3.5668L13.2755 3.55586L13.2781 3.55252L13.2787 3.55171L13.5726 3.15948ZM13.6006 4.38952C12.9067 4.86985 11.9746 4.86976 11.2809 4.38924L3.88004 11.7719C4.35999 12.4656 4.35992 13.3972 3.87977 14.0907L6.48157 16.6926C7.14273 16.2322 8.00946 16.2136 8.69083 16.6276L16.1296 9.18875C15.7228 8.50833 15.7412 7.64363 16.1944 6.98327L13.6006 4.38952ZM6.82175 17.5078C6.82355 17.5056 6.82355 17.5055 6.82175 17.5078ZM3.6466 11.4922C3.6202 11.4658 3.58575 11.4392 3.57941 11.4343L3.57856 11.4337L3.56025 11.4196L3.55447 11.4152L3.5527 11.4139L3.55187 11.4133L3.2969 11.7533M13.261 3.57457C13.2592 3.57669 13.2592 3.57674 13.261 3.57457ZM3.06483 12.1111C3.06694 12.1129 3.067 12.1128 3.06483 12.1111Z" fill="white"/>
<path d="M10.0413 11.9084C10.9046 11.9084 11.6045 11.2086 11.6045 10.3453C11.6045 9.48196 10.9046 8.7821 10.0413 8.7821C9.178 8.7821 8.47815 9.48196 8.47815 10.3453C8.47815 11.2086 9.178 11.9084 10.0413 11.9084Z" fill="white"/>
</g>
</g>
<defs>
<clipPath id="clip0_407_15811">
<rect width="20" height="20" fill="white" transform="translate(0 0.5)"/>
</clipPath>
</defs>
</svg>
