<svg id="icon_server" xmlns="http://www.w3.org/2000/svg" xmlns:xlink="http://www.w3.org/1999/xlink" width="24.77" height="25.759" viewBox="0 0 24.77 25.759">
  <defs>
    <clipPath id="clip-path">
      <rect id="사각형_33" data-name="사각형 33" width="24.77" height="25.759" fill="none"/>
    </clipPath>
  </defs>
  <g id="그룹_69" data-name="그룹 69" transform="translate(0 0)" clip-path="url(#clip-path)">
    <path id="패스_7" data-name="패스 7" d="M20.711,12.073H4.059A4.064,4.064,0,0,1,0,8.014V4.059A4.064,4.064,0,0,1,4.059,0H20.711A4.064,4.064,0,0,1,24.77,4.059V8.014a4.064,4.064,0,0,1-4.059,4.059M4.059,1.873A2.188,2.188,0,0,0,1.873,4.059V8.014A2.188,2.188,0,0,0,4.059,10.2H20.711A2.188,2.188,0,0,0,22.9,8.014V4.059a2.188,2.188,0,0,0-2.186-2.186Z" transform="translate(0 0)" fill="#262626"/>
    <path id="패스_8" data-name="패스 8" d="M28.81,10.786a2.81,2.81,0,1,1,2.81-2.81,2.814,2.814,0,0,1-2.81,2.81m0-3.747a.937.937,0,1,0,.937.937.938.938,0,0,0-.937-.937" transform="translate(-9.764 -1.94)" fill="#262626"/>
    <path id="패스_9" data-name="패스 9" d="M20.711,33.989H4.059A4.064,4.064,0,0,1,0,29.93V25.975a4.064,4.064,0,0,1,4.059-4.059H20.711a4.064,4.064,0,0,1,4.059,4.059V29.93a4.064,4.064,0,0,1-4.059,4.059M4.059,23.789a2.188,2.188,0,0,0-2.186,2.186V29.93a2.188,2.188,0,0,0,2.186,2.186H20.711A2.188,2.188,0,0,0,22.9,29.93V25.975a2.188,2.188,0,0,0-2.186-2.186Z" transform="translate(0 -8.23)" fill="#262626"/>
    <path id="패스_10" data-name="패스 10" d="M28.81,32.7a2.81,2.81,0,1,1,2.81-2.81,2.814,2.814,0,0,1-2.81,2.81m0-3.747a.937.937,0,1,0,.937.937.938.938,0,0,0-.937-.937" transform="translate(-9.764 -10.17)" fill="#262626"/>
  </g>
</svg>
