<svg id="icon_wallet_w" xmlns="http://www.w3.org/2000/svg" xmlns:xlink="http://www.w3.org/1999/xlink" width="26.235" height="22.896" viewBox="0 0 26.235 22.896">
  <defs>
    <clipPath id="clip-path">
      <rect id="사각형_34" data-name="사각형 34" width="26.235" height="22.896" fill="#fff"/>
    </clipPath>
  </defs>
  <g id="그룹_71" data-name="그룹 71" transform="translate(0 0)" clip-path="url(#clip-path)">
    <path id="패스_11" data-name="패스 11" d="M7.343,19.952H1.777a.937.937,0,1,1,0-1.873H7.343a1.665,1.665,0,0,0,1.663-1.663V15.361A1.665,1.665,0,0,0,7.343,13.7H1.777a.937.937,0,1,1,0-1.873H7.343a3.541,3.541,0,0,1,3.536,3.537v1.055a3.54,3.54,0,0,1-3.536,3.536" transform="translate(-0.315 -4.44)" fill="#fff"/>
    <path id="패스_12" data-name="패스 12" d="M7.968,18.705H6.784a.937.937,0,1,1,0-1.873H7.968a.937.937,0,1,1,0,1.873" transform="translate(-2.196 -6.321)" fill="#fff"/>
    <path id="패스_13" data-name="패스 13" d="M22.7,22.9H3.537A3.541,3.541,0,0,1,0,19.36V3.537A3.541,3.541,0,0,1,3.537,0H22.7a3.541,3.541,0,0,1,3.537,3.537V19.36A3.541,3.541,0,0,1,22.7,22.9M3.537,1.873A1.665,1.665,0,0,0,1.873,3.537V19.36a1.665,1.665,0,0,0,1.664,1.663H22.7a1.666,1.666,0,0,0,1.664-1.663V3.537A1.666,1.666,0,0,0,22.7,1.873Z" transform="translate(0 0)" fill="#fff"/>
  </g>
</svg>
