<svg id="icon_user_rd" xmlns="http://www.w3.org/2000/svg" xmlns:xlink="http://www.w3.org/1999/xlink" width="17.81" height="25.576" viewBox="0 0 17.81 25.576">
  <defs>
    <clipPath id="clip-path">
      <rect id="사각형_39" data-name="사각형 39" width="17.81" height="25.576" fill="#ad1f19"/>
    </clipPath>
  </defs>
  <g id="그룹_81" data-name="그룹 81" transform="translate(0 0)" clip-path="url(#clip-path)">
    <path id="패스_27" data-name="패스 27" d="M23.453,30.636a.936.936,0,0,1-.937-.937v-3.23a7,7,0,0,0-4.408-6.52.937.937,0,1,1,.7-1.737,8.867,8.867,0,0,1,5.581,8.257V29.7a.937.937,0,0,1-.937.937" transform="translate(-6.579 -6.813)" fill="#ad1f19"/>
    <path id="패스_28" data-name="패스 28" d="M10.053,13.987a7,7,0,1,1,3.435-.9,6.988,6.988,0,0,1-3.435.9m0-12.113a5.118,5.118,0,0,0-2.512,9.578,5.12,5.12,0,0,0,7.632-4.457,5.127,5.127,0,0,0-5.121-5.121" transform="translate(-1.149 0)" fill="#ad1f19"/>
    <path id="패스_29" data-name="패스 29" d="M15.121,32.389H2.688A2.692,2.692,0,0,1,0,29.7v-3.23a8.866,8.866,0,0,1,5.582-8.258.937.937,0,1,1,.7,1.738,7,7,0,0,0-4.408,6.52V29.7a.816.816,0,0,0,.815.816H15.121a.817.817,0,0,0,.816-.816.937.937,0,0,1,1.873,0,2.692,2.692,0,0,1-2.689,2.69" transform="translate(0 -6.813)" fill="#ad1f19"/>
  </g>
</svg>
