<svg id="icon_logout" xmlns="http://www.w3.org/2000/svg" xmlns:xlink="http://www.w3.org/1999/xlink" width="18.091" height="22.68" viewBox="0 0 18.091 22.68">
  <defs>
    <clipPath id="clip-path">
      <rect id="사각형_50" data-name="사각형 50" width="18.091" height="22.68" fill="none"/>
    </clipPath>
  </defs>
  <g id="그룹_103" data-name="그룹 103" transform="translate(0 0)" clip-path="url(#clip-path)">
    <path id="패스_59" data-name="패스 59" d="M14.094,22.68H4a4,4,0,0,1-2.823-1.167A4,4,0,0,1,0,18.684V15.624a.937.937,0,0,1,1.873,0v3.061A2.125,2.125,0,0,0,4,20.807h10.1a2.131,2.131,0,0,0,1.5-.621,2.131,2.131,0,0,0,.455-.675,2.089,2.089,0,0,0,.166-.826V4a2.083,2.083,0,0,0-.165-.824,2.113,2.113,0,0,0-.457-.679,2.083,2.083,0,0,0-.671-.452,2.115,2.115,0,0,0-.829-.167H4A2.121,2.121,0,0,0,1.873,4v3.06A.937.937,0,0,1,0,7.056V4A4,4,0,0,1,2.443.314,3.951,3.951,0,0,1,4,0h10.1a3.992,3.992,0,0,1,4,4V18.684a4,4,0,0,1-4,4" transform="translate(0 0)" fill="#262626"/>
    <path id="패스_60" data-name="패스 60" d="M11.514,19.678a.937.937,0,0,1-.663-1.6l2.21-2.209-2.21-2.209a.937.937,0,1,1,1.325-1.325l2.872,2.871a.935.935,0,0,1,0,1.325L12.176,19.4a.934.934,0,0,1-.663.274" transform="translate(-3.972 -4.53)" fill="#262626"/>
    <path id="패스_61" data-name="패스 61" d="M9.726,18.532H1.059a.937.937,0,1,1,0-1.873H9.726a.937.937,0,1,1,0,1.873" transform="translate(-0.046 -6.256)" fill="#262626"/>
  </g>
</svg>
