<svg id="icon_calendar_bl" xmlns="http://www.w3.org/2000/svg" xmlns:xlink="http://www.w3.org/1999/xlink" width="25.605" height="25.026" viewBox="0 0 25.605 25.026">
  <defs>
    <clipPath id="clip-path">
      <rect id="사각형_55" data-name="사각형 55" width="25.605" height="25.026" fill="#0049a8"/>
    </clipPath>
  </defs>
  <g id="그룹_115" data-name="그룹 115" transform="translate(0 0)" clip-path="url(#clip-path)">
    <path id="패스_73" data-name="패스 73" d="M27.913,19.463H26.48a.937.937,0,0,1,0-1.873h1.434a.937.937,0,1,1,0,1.873" transform="translate(-9.592 -6.606)" fill="#0049a8"/>
    <path id="패스_74" data-name="패스 74" d="M27.913,25.514H26.48a.937.937,0,0,1,0-1.873h1.434a.937.937,0,0,1,0,1.873" transform="translate(-9.592 -8.878)" fill="#0049a8"/>
    <path id="패스_75" data-name="패스 75" d="M20.223,19.463H18.789a.937.937,0,0,1,0-1.873h1.434a.937.937,0,0,1,0,1.873" transform="translate(-6.704 -6.606)" fill="#0049a8"/>
    <path id="패스_76" data-name="패스 76" d="M20.223,25.514H18.789a.937.937,0,0,1,0-1.873h1.434a.937.937,0,0,1,0,1.873" transform="translate(-6.704 -8.878)" fill="#0049a8"/>
    <path id="패스_77" data-name="패스 77" d="M12.533,19.463H11.1a.937.937,0,0,1,0-1.873h1.433a.937.937,0,0,1,0,1.873" transform="translate(-3.816 -6.606)" fill="#0049a8"/>
    <path id="패스_78" data-name="패스 78" d="M12.533,25.514H11.1a.937.937,0,0,1,0-1.873h1.433a.937.937,0,0,1,0,1.873" transform="translate(-3.816 -8.878)" fill="#0049a8"/>
    <path id="패스_79" data-name="패스 79" d="M21.773,26.244H3.831A3.826,3.826,0,0,1,0,22.413V7.075A3.825,3.825,0,0,1,3.831,3.244a.937.937,0,0,1,0,1.873A1.955,1.955,0,0,0,1.873,7.075V22.413a1.931,1.931,0,0,0,.153.761,1.966,1.966,0,0,0,1.043,1.043,1.927,1.927,0,0,0,.762.154H21.773a1.953,1.953,0,0,0,1.385-.573,1.961,1.961,0,0,0,.419-.623,1.926,1.926,0,0,0,.154-.761V7.075a1.932,1.932,0,0,0-.153-.761,1.951,1.951,0,0,0-1.8-1.2.937.937,0,0,1,0-1.873A3.829,3.829,0,0,1,25.6,7.075V22.413a3.829,3.829,0,0,1-3.831,3.831" transform="translate(0 -1.218)" fill="#0049a8"/>
    <path id="패스_80" data-name="패스 80" d="M21.265,5.117H14.608a.937.937,0,1,1,0-1.873h6.657a.937.937,0,0,1,0,1.873" transform="translate(-5.134 -1.218)" fill="#0049a8"/>
    <path id="패스_81" data-name="패스 81" d="M9.974,5.057a.937.937,0,0,1-.937-.937V.937a.937.937,0,1,1,1.873,0V4.12a.937.937,0,0,1-.937.937" transform="translate(-3.394 0)" fill="#0049a8"/>
    <path id="패스_82" data-name="패스 82" d="M29.9,5.057a.937.937,0,0,1-.937-.937V.937a.937.937,0,1,1,1.873,0V4.12a.937.937,0,0,1-.937.937" transform="translate(-10.877 0)" fill="#0049a8"/>
  </g>
</svg>
