<svg id="icon_warning_bl" xmlns="http://www.w3.org/2000/svg" xmlns:xlink="http://www.w3.org/1999/xlink" width="24.975" height="22.862" viewBox="0 0 24.975 22.862">
  <defs>
    <clipPath id="clip-path">
      <rect id="사각형_40" data-name="사각형 40" width="24.975" height="22.862" fill="#0049a8"/>
    </clipPath>
  </defs>
  <g id="그룹_83" data-name="그룹 83" transform="translate(0 0)" clip-path="url(#clip-path)">
    <path id="패스_30" data-name="패스 30" d="M20.066,22.862H4.909A4.784,4.784,0,0,1,.5,20.759a4.782,4.782,0,0,1,.381-4.867L8.463,2.763A4.782,4.782,0,0,1,12.487,0,4.781,4.781,0,0,1,16.51,2.763l7.581,13.129a4.783,4.783,0,0,1,.381,4.867,4.783,4.783,0,0,1-4.406,2.1M12.487,1.873a3.034,3.034,0,0,0-2.4,1.827L2.506,16.829a3.033,3.033,0,0,0-.382,2.992,3.037,3.037,0,0,0,2.785,1.167H20.066a3.037,3.037,0,0,0,2.784-1.167,3.035,3.035,0,0,0-.382-2.993L14.888,3.7a3.033,3.033,0,0,0-2.4-1.827" transform="translate(0 0)" fill="#0049a8"/>
    <path id="패스_31" data-name="패스 31" d="M19.433,18.318a.937.937,0,0,1-.937-.937V12.066a.937.937,0,0,1,1.873,0v5.316a.937.937,0,0,1-.937.937" transform="translate(-6.946 -4.179)" fill="#0049a8"/>
    <path id="패스_32" data-name="패스 32" d="M19.433,27.5a.937.937,0,0,1-.937-.937v-.89a.937.937,0,0,1,1.873,0v.89a.937.937,0,0,1-.937.937" transform="translate(-6.946 -9.29)" fill="#0049a8"/>
  </g>
</svg>
