<svg id="icon_trash_rd" xmlns="http://www.w3.org/2000/svg" xmlns:xlink="http://www.w3.org/1999/xlink" width="27.665" height="22.838" viewBox="0 0 27.665 22.838">
  <defs>
    <clipPath id="clip-path">
      <rect id="사각형_43" data-name="사각형 43" width="27.665" height="22.838" fill="#ad1f19"/>
    </clipPath>
  </defs>
  <g id="그룹_89" data-name="그룹 89" transform="translate(0 0)" clip-path="url(#clip-path)">
    <path id="패스_36" data-name="패스 36" d="M22.049,27.155H7.744a3.492,3.492,0,0,1-3.39-2.921L2.842,12.553A.936.936,0,0,1,3.771,11.5H26.023a.936.936,0,0,1,.929,1.057L25.441,24.216a3.492,3.492,0,0,1-3.392,2.939M4.837,13.369,6.209,23.975a1.646,1.646,0,0,0,1.536,1.306h14.3a1.646,1.646,0,0,0,1.537-1.323l1.372-10.589Z" transform="translate(-1.064 -4.317)" fill="#ad1f19"/>
    <path id="패스_37" data-name="패스 37" d="M13.936,24.808A.937.937,0,0,1,13,23.871V19.99a.937.937,0,0,1,1.873,0v3.882a.937.937,0,0,1-.937.937" transform="translate(-4.881 -7.155)" fill="#ad1f19"/>
    <path id="패스_38" data-name="패스 38" d="M21.587,24.808a.937.937,0,0,1-.937-.937V19.99a.937.937,0,0,1,1.873,0v3.882a.937.937,0,0,1-.937.937" transform="translate(-7.755 -7.155)" fill="#ad1f19"/>
    <path id="패스_39" data-name="패스 39" d="M29.239,24.808a.937.937,0,0,1-.937-.937V19.99a.937.937,0,0,1,1.873,0v3.882a.937.937,0,0,1-.937.937" transform="translate(-10.628 -7.155)" fill="#ad1f19"/>
    <path id="패스_40" data-name="패스 40" d="M25.032,5.607H2.633A2.637,2.637,0,0,1,0,2.973V2.634A2.637,2.637,0,0,1,2.633,0h22.4a2.637,2.637,0,0,1,2.633,2.634v.339a2.637,2.637,0,0,1-2.633,2.633M2.633,1.873a.761.761,0,0,0-.76.761v.339a.761.761,0,0,0,.76.76h22.4a.761.761,0,0,0,.76-.76V2.634a.761.761,0,0,0-.76-.761Z" transform="translate(0 0)" fill="#ad1f19"/>
  </g>
</svg>
