<svg id="icon_reset_w" xmlns="http://www.w3.org/2000/svg" xmlns:xlink="http://www.w3.org/1999/xlink" width="24.557" height="24.555" viewBox="0 0 24.557 24.555">
  <defs>
    <clipPath id="clip-path">
      <rect id="사각형_45" data-name="사각형 45" width="24.557" height="24.555" transform="translate(0 0)" fill="#fff"/>
    </clipPath>
  </defs>
  <g id="그룹_93" data-name="그룹 93" transform="translate(0 0)" clip-path="url(#clip-path)">
    <path id="패스_46" data-name="패스 46" d="M12.278,24.555A12.277,12.277,0,0,1,3.6,3.6,12.19,12.19,0,0,1,12.278,0a.937.937,0,1,1,0,1.873A10.4,10.4,0,0,0,4.921,19.635,10.4,10.4,0,1,0,19.635,4.921.937.937,0,0,1,20.96,3.6a12.278,12.278,0,0,1-8.681,20.959" transform="translate(0 0)" fill="#fff"/>
    <path id="패스_47" data-name="패스 47" d="M31.4,9.983a.865.865,0,0,1-.106-.006.936.936,0,0,1-.826-1.035l.315-2.792a.936.936,0,0,1,.347-.628.924.924,0,0,1,.689-.2l2.791.315A.936.936,0,0,1,34.4,7.5l-1.861-.21-.21,1.861a.936.936,0,0,1-.929.832" transform="translate(-11.441 -1.997)" fill="#fff"/>
    <path id="패스_48" data-name="패스 48" d="M12.278,24.555A12.277,12.277,0,0,1,3.6,3.6,12.19,12.19,0,0,1,12.278,0a.937.937,0,1,1,0,1.873A10.4,10.4,0,0,0,4.921,19.635,10.4,10.4,0,1,0,19.635,4.921.937.937,0,0,1,20.96,3.6a12.278,12.278,0,0,1-8.681,20.959" transform="translate(0 0)" fill="#fff"/>
    <path id="패스_49" data-name="패스 49" d="M31.4,9.983a.865.865,0,0,1-.106-.006.936.936,0,0,1-.826-1.035l.315-2.792a.936.936,0,0,1,.347-.628.924.924,0,0,1,.689-.2l2.791.315A.936.936,0,0,1,34.4,7.5l-1.861-.21-.21,1.861a.936.936,0,0,1-.929.832" transform="translate(-11.441 -1.997)" fill="#fff"/>
  </g>
</svg>
